# xmcd
#
# Track frame offsets: 
#        150
#        11149
#        21956
#        33789
#        45778
#        58114
#        69404
#        79574
#        89065
#        102857
#        114813
#        125659
#        138582
#        149117
#        161691
#        171700
#        183678
#        197487
#        209756
#        221834
#        233167
#        245600
#        256411
#        278722
#        288765
#        301085
#        314702
#        325861
#        337587
#
# Disc length: 4637 seconds
#
# Revision: 1
# Processed by: cddbd v1.5.2PL0 Copyright (c) Steve Scherf et al.
# Submitted via: ExactAudioCopy v1.0b1
#
DISCID=b2121b1d
DTITLE=Various Artist - Motor City Roots - A Family Affair CD1
DYEAR=2013
DGENRE=R&B
TTITLE0=The Voicemasters - Hope And Pray
TTITLE1=The Voicemasters - Oops I'm Sorry
TTITLE2=The Voicemasters - Needed (For Lovers Only)
TTITLE3=The Voicemasters - Needed
TTITLE4=Paul Gayten - The Hunch
TTITLE5=Paul Gayten - Hot Cross Buns
TTITLE6=Johnny and Jackey - Let's Go To A Movie Baby
TTITLE7=Johnny and Jackey - Lonely And Blue
TTITLE8=Larry Darnell - I'll Get Aong Somehow
TTITLE9=Barrett Strong - Money (That's What I Want)
TTITLE10=Barrett Strong - Oh I Apologise
TTITLE11=Ty Hunter and The Voicemasters - Everything About You
TTITLE12=Herman Griffin and The Mello-Dees - Do You Want to See My Baby
TTITLE13=Ruben Fort - So Good
TTITLE14=Ruben Fort - I Feel It
TTITLE15=Joe Tex - All I Could Do Was Cry - Part 1
TTITLE16=Joe Tex - All I Could Do Was Cry - Part 2
TTITLE17=Johnny and Jackey - Hoy Hoy
TTITLE18=Johnny and Jackey - No One Else But You
TTITLE19=The Cap Tans - Tight Skirts And Crazy Sweaters
TTITLE20=Ty Hunter and The Voicemasters - I'm Free
TTITLE21=Ty Hunter and The Voicemasters - Everytime
TTITLE22=Joe Tex and The Vibrators - I'll Never Break Your Heart (Parts 
TTITLE22=1 and 2)
TTITLE23=LaMont Anthony - Let's Talk It Over
TTITLE24=LaMont Anthony - The Pop Eye
TTITLE25=David Ruffin - I'm In Love
TTITLE26=David Ruffin - One Of These Days
TTITLE27=Joe Tex - Ain't It A Mess
TTITLE28=Joe Tex - Baby You're Right
EXTD=
EXTT0=
EXTT1=
EXTT2=
EXTT3=
EXTT4=
EXTT5=
EXTT6=
EXTT7=
EXTT8=
EXTT9=
EXTT10=
EXTT11=
EXTT12=
EXTT13=
EXTT14=
EXTT15=
EXTT16=
EXTT17=
EXTT18=
EXTT19=
EXTT20=
EXTT21=
EXTT22=
EXTT23=
EXTT24=
EXTT25=
EXTT26=
EXTT27=
EXTT28=
PLAYORDER=
